<svg width="115" height="130" viewBox="0 0 115 130" fill="none" xmlns="http://www.w3.org/2000/svg">
<path d="M99.1171 64.9991C88.7188 76.617 73.6078 83.9284 56.789 83.9284C39.9703 83.9284 24.8592 76.617 14.4609 64.9991C24.8592 53.3813 39.9703 46.0698 56.789 46.0698C73.6078 46.0698 88.7188 53.3813 99.1171 64.9991Z" fill="white"/>
<path opacity="0.6" fill-rule="evenodd" clip-rule="evenodd" d="M0 102.858C0 71.4946 25.4249 46.0698 56.7881 46.0698C39.9694 46.0698 24.8584 53.3813 14.4601 64.9991C24.8584 76.617 39.9695 83.9284 56.7882 83.9284C73.6069 83.9284 88.7179 76.617 99.1162 64.9992C108.108 75.046 113.576 88.3134 113.576 102.858V124.311C113.576 127.099 111.316 129.359 108.528 129.359H5.04783C2.25999 129.359 0 127.099 0 124.311V102.858ZM99.1162 64.9992C99.1162 64.9992 99.1162 64.9992 99.1162 64.9992Z" fill="white"/>
<path opacity="0.8" fill-rule="evenodd" clip-rule="evenodd" d="M35.4875 79.7992C27.379 76.516 20.2012 71.4142 14.4601 64.9998C24.8584 53.3819 39.9695 46.0705 56.7882 46.0705C73.6069 46.0705 88.7179 53.3819 99.1162 64.9997C99.1162 64.9997 99.1162 64.9997 99.1162 64.9997C108.108 54.9529 113.576 41.6856 113.576 27.1412V5.68796C113.576 2.90013 111.316 0.640146 108.528 0.640146L5.04783 0.640137C2.26 0.640136 2.11923e-06 2.90012 1.87551e-06 5.68795L0 27.1412C-3.77219e-06 50.9716 14.6786 71.3736 35.4875 79.7992Z" fill="white"/>
</svg>
