<svg width="468" height="130" viewBox="0 0 468 130" fill="none" xmlns="http://www.w3.org/2000/svg">
<path d="M19.3594 31.9767C20.9383 39.0477 22.5173 46.2216 24.0963 53.4986C25.6752 60.7755 27.2198 67.9838 28.7301 75.1234C30.3091 67.9838 31.8881 60.7755 33.467 53.4986C35.1146 46.2216 36.6936 39.0477 38.2039 31.9767C40.8813 31.9767 43.5929 31.9767 46.339 31.9767C49.085 31.9767 51.7966 31.9767 54.474 31.9767C56.1216 39.0477 57.7692 46.1873 59.4168 53.3956C61.0644 60.6039 62.712 67.7778 64.3597 74.9175C65.9386 67.7778 67.4832 60.6039 68.9935 53.3956C70.5725 46.1873 72.1171 39.0477 73.6274 31.9767C76.3735 31.9767 79.1195 31.9767 81.8655 31.9767C84.6801 31.9767 87.4605 31.9767 90.2065 31.9767C87.6664 43.5099 85.1264 55.1805 82.5863 66.9883C80.0462 78.7962 77.5062 90.4667 74.9661 102C71.6023 102 68.1697 102 64.6686 102C61.2361 102 57.8035 102 54.371 102C52.9294 95.6155 51.4534 89.1967 49.9431 82.7436C48.4328 76.2218 46.9568 69.7687 45.5151 63.3842C44.1421 69.7687 42.7348 76.2218 41.2932 82.7436C39.8515 89.1967 38.4442 95.6155 37.0712 102C33.7073 102 30.3091 102 26.8766 102C23.5127 102 20.1489 102 16.785 102C14.2449 90.4667 11.7049 78.7962 9.16481 66.9883C6.62475 55.1805 4.08469 43.5099 1.54463 31.9767C4.49659 31.9767 7.44856 31.9767 10.4005 31.9767C13.4211 31.9767 16.4074 31.9767 19.3594 31.9767ZM119.488 103.648C115.506 103.648 111.799 102.961 108.366 101.588C104.934 100.146 101.948 98.1556 99.4075 95.6155C96.8674 93.0068 94.8766 89.9862 93.4349 86.5537C92.0619 83.1212 91.3754 79.3797 91.3754 75.3294C91.3754 71.279 92.0619 67.5376 93.4349 64.105C94.8766 60.6725 96.8674 57.6862 99.4075 55.1462C101.948 52.6061 104.934 50.6496 108.366 49.2766C111.799 47.8349 115.506 47.1141 119.488 47.1141C123.538 47.1141 127.245 47.8349 130.609 49.2766C134.042 50.6496 137.028 52.6061 139.568 55.1462C142.108 57.6862 144.065 60.6725 145.438 64.105C146.879 67.5376 147.6 71.279 147.6 75.3294C147.6 79.3797 146.879 83.1212 145.438 86.5537C144.065 89.9862 142.108 93.0068 139.568 95.6155C137.028 98.1556 134.042 100.146 130.609 101.588C127.245 102.961 123.538 103.648 119.488 103.648ZM119.488 88.3043C122.852 88.3043 125.529 87.1029 127.52 84.7001C129.579 82.2287 130.609 79.1051 130.609 75.3294C130.609 71.4849 129.579 68.3957 127.52 66.0616C125.529 63.6588 122.852 62.4574 119.488 62.4574C116.124 62.4574 113.412 63.6588 111.353 66.0616C109.362 68.3957 108.366 71.4849 108.366 75.3294C108.366 79.1051 109.362 82.2287 111.353 84.7001C113.412 87.1029 116.124 88.3043 119.488 88.3043ZM181.233 103.648C177.251 103.648 173.544 102.961 170.111 101.588C166.679 100.146 163.693 98.1556 161.153 95.6155C158.612 93.0068 156.622 89.9862 155.18 86.5537C153.807 83.1212 153.12 79.3797 153.12 75.3294C153.12 71.279 153.807 67.5376 155.18 64.105C156.622 60.6725 158.612 57.6862 161.153 55.1462C163.693 52.6061 166.679 50.6496 170.111 49.2766C173.544 47.8349 177.251 47.1141 181.233 47.1141C185.283 47.1141 188.99 47.8349 192.354 49.2766C195.787 50.6496 198.773 52.6061 201.313 55.1462C203.853 57.6862 205.81 60.6725 207.183 64.105C208.624 67.5376 209.345 71.279 209.345 75.3294C209.345 79.3797 208.624 83.1212 207.183 86.5537C205.81 89.9862 203.853 93.0068 201.313 95.6155C198.773 98.1556 195.787 100.146 192.354 101.588C188.99 102.961 185.283 103.648 181.233 103.648ZM181.233 88.3043C184.597 88.3043 187.274 87.1029 189.265 84.7001C191.324 82.2287 192.354 79.1051 192.354 75.3294C192.354 71.4849 191.324 68.3957 189.265 66.0616C187.274 63.6588 184.597 62.4574 181.233 62.4574C177.869 62.4574 175.157 63.6588 173.098 66.0616C171.107 68.3957 170.111 71.4849 170.111 75.3294C170.111 79.1051 171.107 82.2287 173.098 84.7001C175.157 87.1029 177.869 88.3043 181.233 88.3043ZM214.466 64.0021C214.466 61.462 214.466 58.9219 214.466 56.3819C214.466 53.8418 214.466 51.3018 214.466 48.7617C215.839 48.7617 217.212 48.7617 218.585 48.7617C220.026 48.7617 221.434 48.7617 222.807 48.7617C222.807 48.4184 222.807 48.1095 222.807 47.8349C222.807 47.5603 222.807 47.2857 222.807 47.0111C222.807 42.4115 223.733 38.5671 225.587 35.4779C227.509 32.3199 230.015 29.9172 233.104 28.2696C236.262 26.5533 239.695 25.5922 243.402 25.3863C247.178 25.1117 250.919 25.5922 254.626 26.8279C254.626 29.368 254.626 31.9767 254.626 34.6541C254.626 37.3314 254.626 39.9745 254.626 42.5832C250.507 41.2102 247.006 40.9356 244.123 41.7594C241.239 42.5832 239.798 44.3681 239.798 47.1141C239.798 47.3887 239.798 47.6633 239.798 47.9379C239.798 48.2125 239.798 48.4871 239.798 48.7617C241.926 48.7617 244.054 48.7617 246.182 48.7617C248.31 48.7617 250.438 48.7617 252.567 48.7617C252.567 51.3018 252.567 53.8418 252.567 56.3819C252.567 58.9219 252.567 61.462 252.567 64.0021C250.438 64.0021 248.31 64.0021 246.182 64.0021C244.054 64.0021 241.926 64.0021 239.798 64.0021C239.798 70.2492 239.798 76.5651 239.798 82.9495C239.798 89.334 239.798 95.6842 239.798 102C237.052 102 234.237 102 231.354 102C228.47 102 225.621 102 222.807 102C222.807 95.6842 222.807 89.334 222.807 82.9495C222.807 76.5651 222.807 70.2492 222.807 64.0021C221.434 64.0021 220.026 64.0021 218.585 64.0021C217.212 64.0021 215.839 64.0021 214.466 64.0021ZM311.029 48.7617C311.029 57.5489 311.029 66.4391 311.029 75.4323C311.029 84.3569 311.029 93.2128 311.029 102C308.283 102 305.469 102 302.585 102C299.702 102 296.853 102 294.038 102C294.038 101.519 294.038 101.073 294.038 100.661C294.038 100.249 294.038 99.8032 294.038 99.3226C292.185 100.627 290.091 101.622 287.757 102.309C285.491 103.064 283.02 103.442 280.343 103.442C276.43 103.442 272.963 102.549 269.942 100.764C266.99 98.9794 264.656 96.405 262.94 93.0411C261.292 89.6773 260.468 85.6956 260.468 81.096C260.468 75.7413 260.468 70.3522 260.468 64.9288C260.468 59.5055 260.468 54.1164 260.468 48.7617C263.283 48.7617 266.132 48.7617 269.015 48.7617C271.899 48.7617 274.713 48.7617 277.459 48.7617C277.459 53.7045 277.459 58.716 277.459 63.7961C277.459 68.8762 277.459 73.8877 277.459 78.8305C277.459 81.5765 278.077 83.8077 279.313 85.5239C280.617 87.1715 282.642 87.9953 285.388 87.9953C288.134 87.9953 290.263 87.2059 291.773 85.6269C293.283 84.0479 294.038 81.7825 294.038 78.8305C294.038 73.8877 294.038 68.8762 294.038 63.7961C294.038 58.716 294.038 53.7045 294.038 48.7617C296.853 48.7617 299.702 48.7617 302.585 48.7617C305.469 48.7617 308.283 48.7617 311.029 48.7617ZM322.333 102C322.333 93.2128 322.333 84.3569 322.333 75.4323C322.333 66.4391 322.333 57.5489 322.333 48.7617C325.148 48.7617 327.997 48.7617 330.88 48.7617C333.764 48.7617 336.578 48.7617 339.324 48.7617C339.324 49.2422 339.324 49.7228 339.324 50.2034C339.324 50.6839 339.324 51.1645 339.324 51.645C341.452 50.1347 343.855 49.002 346.532 48.2468C349.21 47.4917 352.127 47.2857 355.285 47.629C355.285 50.375 355.285 53.1553 355.285 55.97C355.285 58.7846 355.285 61.565 355.285 64.311C349.862 63.5558 345.846 64.0364 343.237 65.7526C340.629 67.4003 339.324 70.1119 339.324 73.8877C339.324 78.4873 339.324 83.1555 339.324 87.8924C339.324 92.6292 339.324 97.3318 339.324 102C336.578 102 333.764 102 330.88 102C327.997 102 325.148 102 322.333 102ZM362.96 102C362.96 93.2128 362.96 84.3569 362.96 75.4323C362.96 66.4391 362.96 57.5489 362.96 48.7617C365.775 48.7617 368.624 48.7617 371.507 48.7617C374.391 48.7617 377.205 48.7617 379.951 48.7617C379.951 49.2422 379.951 49.6885 379.951 50.1004C379.951 50.5123 379.951 50.9585 379.951 51.4391C381.805 50.1347 383.864 49.1393 386.13 48.4528C388.464 47.6976 390.97 47.32 393.647 47.32C397.56 47.32 400.993 48.2125 403.945 49.9974C406.965 51.7823 409.299 54.3567 410.947 57.7206C412.663 61.0158 413.521 64.9975 413.521 69.6657C413.521 75.0204 413.521 80.4095 413.521 85.8329C413.521 91.2562 413.521 96.6453 413.521 102C410.775 102 407.961 102 405.077 102C402.194 102 399.345 102 396.53 102C396.53 97.0572 396.53 92.0457 396.53 86.9656C396.53 81.8855 396.53 76.874 396.53 71.9312C396.53 69.1852 395.878 66.9883 394.574 65.3407C393.338 63.6245 391.347 62.7664 388.601 62.7664C385.855 62.7664 383.727 63.5558 382.217 65.1348C380.706 66.7137 379.951 68.9792 379.951 71.9312C379.951 76.874 379.951 81.8855 379.951 86.9656C379.951 92.0457 379.951 97.0572 379.951 102C377.205 102 374.391 102 371.507 102C368.624 102 365.775 102 362.96 102ZM464.677 85.5239C464.677 89.7802 463.475 93.2814 461.073 96.0274C458.738 98.7048 455.581 100.661 451.599 101.897C447.617 103.133 443.155 103.648 438.212 103.442C433.338 103.304 428.361 102.515 423.281 101.073C423.281 98.4645 423.281 95.7871 423.281 93.0411C423.281 90.2951 423.281 87.6178 423.281 85.0091C426.164 86.3134 429.047 87.3432 431.93 88.0983C434.814 88.7848 437.423 89.1967 439.757 89.334C442.091 89.4713 443.979 89.2997 445.42 88.8191C446.862 88.2699 447.583 87.3775 447.583 86.1418C447.583 85.1807 446.965 84.4255 445.729 83.8763C444.562 83.3271 443.018 82.8466 441.095 82.4347C439.173 81.9541 437.114 81.4049 434.917 80.7871C432.789 80.1006 430.763 79.1738 428.841 78.0067C426.919 76.771 425.34 75.1577 424.104 73.1669C422.937 71.1074 422.354 68.4643 422.354 65.2378C422.354 61.3933 423.452 58.1325 425.649 55.4551C427.914 52.7091 430.935 50.6496 434.711 49.2766C438.487 47.8349 442.709 47.1141 447.377 47.1141C452.045 47.1141 456.816 47.9036 461.69 49.4825C461.69 52.0912 461.69 54.7686 461.69 57.5146C461.69 60.2606 461.69 62.938 461.69 65.5467C457.846 63.6931 454.242 62.4574 450.878 61.8396C447.514 61.2217 444.802 61.1531 442.743 61.6336C440.683 62.0455 439.654 62.9723 439.654 64.414C439.654 65.3751 440.237 66.1302 441.404 66.6794C442.64 67.16 444.185 67.6062 446.038 68.0181C447.96 68.43 449.986 68.9792 452.114 69.6657C454.31 70.3522 456.336 71.3133 458.189 72.549C460.111 73.7161 461.656 75.3637 462.823 77.4918C464.059 79.5514 464.677 82.2287 464.677 85.5239Z" fill="#2DAC5C"/>
</svg>
