<svg width="642" height="146" viewBox="0 0 642 146" fill="none" xmlns="http://www.w3.org/2000/svg">
<path fill-rule="evenodd" clip-rule="evenodd" d="M8 110.218C8 78.8545 33.4248 53.4297 64.7879 53.4297C47.9692 53.4297 32.8583 60.7411 22.4601 72.359C32.8583 83.9768 47.9693 91.2883 64.788 91.2883C81.6067 91.2883 96.7176 83.9769 107.116 72.3591C116.108 82.4059 121.576 95.6732 121.576 110.218V131.671C121.576 134.459 119.316 136.719 116.528 136.719H13.0478C10.26 136.719 8 134.459 8 131.671V110.218ZM107.116 72.3591C107.116 72.359 107.116 72.3591 107.116 72.3591Z" fill="#23904B"/>
<path fill-rule="evenodd" clip-rule="evenodd" d="M43.4874 87.159C35.3789 83.8758 28.2012 78.7741 22.4601 72.3596C32.8583 60.7418 47.9693 53.4303 64.788 53.4303C81.6066 53.4303 96.7176 60.7418 107.116 72.3596C107.116 72.3596 107.116 72.3596 107.116 72.3596C116.108 62.3127 121.576 49.0454 121.576 34.501V13.0478C121.576 10.26 119.316 8.00001 116.528 8.00001L13.0478 8C10.26 8 8 10.26 8 13.0478L8 34.501C8 58.3314 22.6785 78.7335 43.4874 87.159Z" fill="#2DAC5C"/>
<path d="M181.451 39.9767C183.03 47.0477 184.609 54.2216 186.188 61.4986C187.767 68.7755 189.312 75.9838 190.822 83.1234C192.401 75.9838 193.98 68.7755 195.559 61.4986C197.206 54.2216 198.785 47.0477 200.296 39.9767C202.973 39.9767 205.685 39.9767 208.431 39.9767C211.177 39.9767 213.888 39.9767 216.566 39.9767C218.213 47.0477 219.861 54.1873 221.509 61.3956C223.156 68.6039 224.804 75.7778 226.451 82.9175C228.03 75.7778 229.575 68.6039 231.085 61.3956C232.664 54.1873 234.209 47.0477 235.719 39.9767C238.465 39.9767 241.211 39.9767 243.957 39.9767C246.772 39.9767 249.552 39.9767 252.298 39.9767C249.758 51.5099 247.218 63.1805 244.678 74.9883C242.138 86.7962 239.598 98.4667 237.058 110C233.694 110 230.262 110 226.76 110C223.328 110 219.895 110 216.463 110C215.021 103.616 213.545 97.1967 212.035 90.7436C210.525 84.2218 209.049 77.7687 207.607 71.3842C206.234 77.7687 204.827 84.2218 203.385 90.7436C201.943 97.1967 200.536 103.616 199.163 110C195.799 110 192.401 110 188.968 110C185.605 110 182.241 110 178.877 110C176.337 98.4667 173.797 86.7962 171.257 74.9883C168.717 63.1805 166.176 51.5099 163.636 39.9767C166.588 39.9767 169.54 39.9767 172.492 39.9767C175.513 39.9767 178.499 39.9767 181.451 39.9767ZM281.58 111.648C277.598 111.648 273.891 110.961 270.458 109.588C267.026 108.146 264.039 106.156 261.499 103.616C258.959 101.007 256.968 97.9862 255.527 94.5537C254.154 91.1212 253.467 87.3797 253.467 83.3294C253.467 79.279 254.154 75.5376 255.527 72.105C256.968 68.6725 258.959 65.6862 261.499 63.1462C264.039 60.6061 267.026 58.6496 270.458 57.2766C273.891 55.8349 277.598 55.1141 281.58 55.1141C285.63 55.1141 289.337 55.8349 292.701 57.2766C296.133 58.6496 299.12 60.6061 301.66 63.1462C304.2 65.6862 306.156 68.6725 307.529 72.105C308.971 75.5376 309.692 79.279 309.692 83.3294C309.692 87.3797 308.971 91.1212 307.529 94.5537C306.156 97.9862 304.2 101.007 301.66 103.616C299.12 106.156 296.133 108.146 292.701 109.588C289.337 110.961 285.63 111.648 281.58 111.648ZM281.58 96.3043C284.943 96.3043 287.621 95.1029 289.612 92.7001C291.671 90.2287 292.701 87.1051 292.701 83.3294C292.701 79.4849 291.671 76.3957 289.612 74.0616C287.621 71.6588 284.943 70.4574 281.58 70.4574C278.216 70.4574 275.504 71.6588 273.444 74.0616C271.454 76.3957 270.458 79.4849 270.458 83.3294C270.458 87.1051 271.454 90.2287 273.444 92.7001C275.504 95.1029 278.216 96.3043 281.58 96.3043ZM343.325 111.648C339.343 111.648 335.636 110.961 332.203 109.588C328.771 108.146 325.784 106.156 323.244 103.616C320.704 101.007 318.713 97.9862 317.272 94.5537C315.899 91.1212 315.212 87.3797 315.212 83.3294C315.212 79.279 315.899 75.5376 317.272 72.105C318.713 68.6725 320.704 65.6862 323.244 63.1462C325.784 60.6061 328.771 58.6496 332.203 57.2766C335.636 55.8349 339.343 55.1141 343.325 55.1141C347.375 55.1141 351.082 55.8349 354.446 57.2766C357.878 58.6496 360.865 60.6061 363.405 63.1462C365.945 65.6862 367.901 68.6725 369.274 72.105C370.716 75.5376 371.437 79.279 371.437 83.3294C371.437 87.3797 370.716 91.1212 369.274 94.5537C367.901 97.9862 365.945 101.007 363.405 103.616C360.865 106.156 357.878 108.146 354.446 109.588C351.082 110.961 347.375 111.648 343.325 111.648ZM343.325 96.3043C346.688 96.3043 349.366 95.1029 351.357 92.7001C353.416 90.2287 354.446 87.1051 354.446 83.3294C354.446 79.4849 353.416 76.3957 351.357 74.0616C349.366 71.6588 346.688 70.4574 343.325 70.4574C339.961 70.4574 337.249 71.6588 335.189 74.0616C333.199 76.3957 332.203 79.4849 332.203 83.3294C332.203 87.1051 333.199 90.2287 335.189 92.7001C337.249 95.1029 339.961 96.3043 343.325 96.3043ZM376.557 72.0021C376.557 69.462 376.557 66.9219 376.557 64.3819C376.557 61.8418 376.557 59.3018 376.557 56.7617C377.93 56.7617 379.303 56.7617 380.676 56.7617C382.118 56.7617 383.525 56.7617 384.898 56.7617C384.898 56.4184 384.898 56.1095 384.898 55.8349C384.898 55.5603 384.898 55.2857 384.898 55.0111C384.898 50.4115 385.825 46.5671 387.679 43.4779C389.601 40.3199 392.107 37.9172 395.196 36.2696C398.354 34.5533 401.786 33.5922 405.494 33.3863C409.269 33.1117 413.011 33.5922 416.718 34.8279C416.718 37.368 416.718 39.9767 416.718 42.6541C416.718 45.3314 416.718 47.9745 416.718 50.5832C412.599 49.2102 409.098 48.9356 406.214 49.7594C403.331 50.5832 401.889 52.3681 401.889 55.1141C401.889 55.3887 401.889 55.6633 401.889 55.9379C401.889 56.2125 401.889 56.4871 401.889 56.7617C404.018 56.7617 406.146 56.7617 408.274 56.7617C410.402 56.7617 412.53 56.7617 414.658 56.7617C414.658 59.3018 414.658 61.8418 414.658 64.3819C414.658 66.9219 414.658 69.462 414.658 72.0021C412.53 72.0021 410.402 72.0021 408.274 72.0021C406.146 72.0021 404.018 72.0021 401.889 72.0021C401.889 78.2492 401.889 84.5651 401.889 90.9495C401.889 97.334 401.889 103.684 401.889 110C399.143 110 396.329 110 393.445 110C390.562 110 387.713 110 384.898 110C384.898 103.684 384.898 97.334 384.898 90.9495C384.898 84.5651 384.898 78.2492 384.898 72.0021C383.525 72.0021 382.118 72.0021 380.676 72.0021C379.303 72.0021 377.93 72.0021 376.557 72.0021ZM473.121 56.7617C473.121 65.5489 473.121 74.4391 473.121 83.4323C473.121 92.3569 473.121 101.213 473.121 110C470.375 110 467.56 110 464.677 110C461.794 110 458.945 110 456.13 110C456.13 109.519 456.13 109.073 456.13 108.661C456.13 108.249 456.13 107.803 456.13 107.323C454.277 108.627 452.183 109.622 449.849 110.309C447.583 111.064 445.112 111.442 442.434 111.442C438.521 111.442 435.054 110.549 432.034 108.764C429.082 106.979 426.748 104.405 425.032 101.041C423.384 97.6773 422.56 93.6956 422.56 89.096C422.56 83.7413 422.56 78.3522 422.56 72.9288C422.56 67.5055 422.56 62.1164 422.56 56.7617C425.375 56.7617 428.224 56.7617 431.107 56.7617C433.99 56.7617 436.805 56.7617 439.551 56.7617C439.551 61.7045 439.551 66.716 439.551 71.7961C439.551 76.8762 439.551 81.8877 439.551 86.8305C439.551 89.5765 440.169 91.8077 441.405 93.5239C442.709 95.1715 444.734 95.9953 447.48 95.9953C450.226 95.9953 452.354 95.2059 453.865 93.6269C455.375 92.0479 456.13 89.7825 456.13 86.8305C456.13 81.8877 456.13 76.8762 456.13 71.7961C456.13 66.716 456.13 61.7045 456.13 56.7617C458.945 56.7617 461.794 56.7617 464.677 56.7617C467.56 56.7617 470.375 56.7617 473.121 56.7617ZM484.425 110C484.425 101.213 484.425 92.3569 484.425 83.4323C484.425 74.4391 484.425 65.5489 484.425 56.7617C487.24 56.7617 490.089 56.7617 492.972 56.7617C495.855 56.7617 498.67 56.7617 501.416 56.7617C501.416 57.2422 501.416 57.7228 501.416 58.2034C501.416 58.6839 501.416 59.1645 501.416 59.645C503.544 58.1347 505.947 57.002 508.624 56.2468C511.302 55.4917 514.219 55.2857 517.377 55.629C517.377 58.375 517.377 61.1553 517.377 63.97C517.377 66.7846 517.377 69.565 517.377 72.311C511.954 71.5558 507.938 72.0364 505.329 73.7526C502.72 75.4003 501.416 78.1119 501.416 81.8877C501.416 86.4873 501.416 91.1555 501.416 95.8924C501.416 100.629 501.416 105.332 501.416 110C498.67 110 495.855 110 492.972 110C490.089 110 487.24 110 484.425 110ZM525.052 110C525.052 101.213 525.052 92.3569 525.052 83.4323C525.052 74.4391 525.052 65.5489 525.052 56.7617C527.867 56.7617 530.716 56.7617 533.599 56.7617C536.482 56.7617 539.297 56.7617 542.043 56.7617C542.043 57.2422 542.043 57.6885 542.043 58.1004C542.043 58.5123 542.043 58.9585 542.043 59.4391C543.897 58.1347 545.956 57.1393 548.222 56.4528C550.556 55.6976 553.061 55.32 555.739 55.32C559.652 55.32 563.084 56.2125 566.036 57.9974C569.057 59.7823 571.391 62.3567 573.039 65.7206C574.755 69.0158 575.613 72.9975 575.613 77.6657C575.613 83.0204 575.613 88.4095 575.613 93.8329C575.613 99.2562 575.613 104.645 575.613 110C572.867 110 570.052 110 567.169 110C564.286 110 561.437 110 558.622 110C558.622 105.057 558.622 100.046 558.622 94.9656C558.622 89.8855 558.622 84.874 558.622 79.9312C558.622 77.1852 557.97 74.9883 556.666 73.3407C555.43 71.6245 553.439 70.7664 550.693 70.7664C547.947 70.7664 545.819 71.5558 544.308 73.1348C542.798 74.7137 542.043 76.9792 542.043 79.9312C542.043 84.874 542.043 89.8855 542.043 94.9656C542.043 100.046 542.043 105.057 542.043 110C539.297 110 536.482 110 533.599 110C530.716 110 527.867 110 525.052 110ZM626.768 93.5239C626.768 97.7802 625.567 101.281 623.164 104.027C620.83 106.705 617.672 108.661 613.691 109.897C609.709 111.133 605.247 111.648 600.304 111.442C595.43 111.304 590.452 110.515 585.372 109.073C585.372 106.465 585.372 103.787 585.372 101.041C585.372 98.2951 585.372 95.6178 585.372 93.0091C588.256 94.3134 591.139 95.3432 594.022 96.0983C596.906 96.7848 599.514 97.1967 601.848 97.334C604.183 97.4713 606.07 97.2997 607.512 96.8191C608.954 96.2699 609.675 95.3775 609.675 94.1418C609.675 93.1807 609.057 92.4255 607.821 91.8763C606.654 91.3271 605.109 90.8466 603.187 90.4347C601.265 89.9541 599.205 89.4049 597.009 88.7871C594.88 88.1006 592.855 87.1738 590.933 86.0067C589.011 84.771 587.432 83.1577 586.196 81.1669C585.029 79.1074 584.446 76.4643 584.446 73.2378C584.446 69.3933 585.544 66.1325 587.741 63.4551C590.006 60.7091 593.027 58.6496 596.803 57.2766C600.578 55.8349 604.8 55.1141 609.469 55.1141C614.137 55.1141 618.908 55.9036 623.782 57.4825C623.782 60.0912 623.782 62.7686 623.782 65.5146C623.782 68.2606 623.782 70.938 623.782 73.5467C619.938 71.6931 616.334 70.4574 612.97 69.8396C609.606 69.2217 606.894 69.1531 604.835 69.6336C602.775 70.0455 601.745 70.9723 601.745 72.414C601.745 73.3751 602.329 74.1302 603.496 74.6794C604.732 75.16 606.276 75.6062 608.13 76.0181C610.052 76.43 612.077 76.9792 614.205 77.6657C616.402 78.3522 618.427 79.3133 620.281 80.549C622.203 81.7161 623.748 83.3637 624.915 85.4918C626.151 87.5514 626.768 90.2287 626.768 93.5239Z" fill="#2DAC5C"/>
</svg>
