<svg width="115" height="129" viewBox="0 0 115 129" fill="none" xmlns="http://www.w3.org/2000/svg">
<path fill-rule="evenodd" clip-rule="evenodd" d="M0 102.218C0 70.8545 25.4248 45.4297 56.7879 45.4297C39.9692 45.4297 24.8583 52.7411 14.4601 64.359C24.8583 75.9768 39.9693 83.2883 56.788 83.2883C73.6067 83.2883 88.7176 75.9769 99.1159 64.3591C108.108 74.4059 113.576 87.6732 113.576 102.218V123.671C113.576 126.459 111.316 128.719 108.528 128.719H5.04781C2.25998 128.719 0 126.459 0 123.671V102.218ZM99.1159 64.3591C99.1159 64.359 99.1158 64.3591 99.1159 64.3591Z" fill="#23904B"/>
<path fill-rule="evenodd" clip-rule="evenodd" d="M35.4874 79.159C27.3789 75.8758 20.2012 70.7741 14.4601 64.3596C24.8583 52.7418 39.9693 45.4303 56.788 45.4303C73.6066 45.4303 88.7176 52.7418 99.1159 64.3596C99.1158 64.3596 99.1159 64.3596 99.1159 64.3596C108.108 54.3127 113.576 41.0454 113.576 26.501V5.04782C113.576 2.26 111.316 9.48782e-06 108.528 9.48782e-06L5.04781 0C2.25999 -2.43719e-07 2.11922e-06 2.25999 1.8755e-06 5.04781L0 26.501C-3.77218e-06 50.3314 14.6785 70.7335 35.4874 79.159Z" fill="#2DAC5C"/>
</svg>
