<svg width="469" height="130" viewBox="0 0 469 130" fill="none" xmlns="http://www.w3.org/2000/svg">
<path d="M19.4531 31.9767C21.0321 39.0477 22.611 46.2216 24.19 53.4986C25.769 60.7755 27.3136 67.9838 28.8239 75.1234C30.4029 67.9838 31.9818 60.7755 33.5608 53.4986C35.2084 46.2216 36.7873 39.0477 38.2976 31.9767C40.975 31.9767 43.6867 31.9767 46.4327 31.9767C49.1787 31.9767 51.8904 31.9767 54.5678 31.9767C56.2154 39.0477 57.863 46.1873 59.5106 53.3956C61.1582 60.6039 62.8058 67.7778 64.4534 74.9175C66.0324 67.7778 67.577 60.6039 69.0873 53.3956C70.6663 46.1873 72.2109 39.0477 73.7212 31.9767C76.4672 31.9767 79.2132 31.9767 81.9592 31.9767C84.7739 31.9767 87.5542 31.9767 90.3002 31.9767C87.7602 43.5099 85.2201 55.1805 82.6801 66.9883C80.14 78.7962 77.5999 90.4667 75.0599 102C71.696 102 68.2635 102 64.7623 102C61.3298 102 57.8973 102 54.4648 102C53.0231 95.6155 51.5471 89.1967 50.0368 82.7436C48.5265 76.2218 47.0506 69.7687 45.6089 63.3842C44.2359 69.7687 42.8286 76.2218 41.3869 82.7436C39.9452 89.1967 38.5379 95.6155 37.1649 102C33.801 102 30.4029 102 26.9703 102C23.6065 102 20.2426 102 16.8787 102C14.3387 90.4667 11.7986 78.7962 9.25856 66.9883C6.7185 55.1805 4.17844 43.5099 1.63838 31.9767C4.59034 31.9767 7.54231 31.9767 10.4943 31.9767C13.5149 31.9767 16.5012 31.9767 19.4531 31.9767ZM119.581 103.648C115.6 103.648 111.893 102.961 108.46 101.588C105.028 100.146 102.041 98.1556 99.5013 95.6155C96.9612 93.0068 94.9703 89.9862 93.5287 86.5537C92.1557 83.1212 91.4692 79.3797 91.4692 75.3294C91.4692 71.279 92.1557 67.5376 93.5287 64.105C94.9703 60.6725 96.9612 57.6862 99.5013 55.1462C102.041 52.6061 105.028 50.6496 108.46 49.2766C111.893 47.8349 115.6 47.1141 119.581 47.1141C123.632 47.1141 127.339 47.8349 130.703 49.2766C134.135 50.6496 137.122 52.6061 139.662 55.1462C142.202 57.6862 144.158 60.6725 145.531 64.105C146.973 67.5376 147.694 71.279 147.694 75.3294C147.694 79.3797 146.973 83.1212 145.531 86.5537C144.158 89.9862 142.202 93.0068 139.662 95.6155C137.122 98.1556 134.135 100.146 130.703 101.588C127.339 102.961 123.632 103.648 119.581 103.648ZM119.581 88.3043C122.945 88.3043 125.623 87.1029 127.614 84.7001C129.673 82.2287 130.703 79.1051 130.703 75.3294C130.703 71.4849 129.673 68.3957 127.614 66.0616C125.623 63.6588 122.945 62.4574 119.581 62.4574C116.218 62.4574 113.506 63.6588 111.446 66.0616C109.456 68.3957 108.46 71.4849 108.46 75.3294C108.46 79.1051 109.456 82.2287 111.446 84.7001C113.506 87.1029 116.218 88.3043 119.581 88.3043ZM181.327 103.648C177.345 103.648 173.638 102.961 170.205 101.588C166.773 100.146 163.786 98.1556 161.246 95.6155C158.706 93.0068 156.715 89.9862 155.274 86.5537C153.901 83.1212 153.214 79.3797 153.214 75.3294C153.214 71.279 153.901 67.5376 155.274 64.105C156.715 60.6725 158.706 57.6862 161.246 55.1462C163.786 52.6061 166.773 50.6496 170.205 49.2766C173.638 47.8349 177.345 47.1141 181.327 47.1141C185.377 47.1141 189.084 47.8349 192.448 49.2766C195.88 50.6496 198.867 52.6061 201.407 55.1462C203.947 57.6862 205.903 60.6725 207.276 64.105C208.718 67.5376 209.439 71.279 209.439 75.3294C209.439 79.3797 208.718 83.1212 207.276 86.5537C205.903 89.9862 203.947 93.0068 201.407 95.6155C198.867 98.1556 195.88 100.146 192.448 101.588C189.084 102.961 185.377 103.648 181.327 103.648ZM181.327 88.3043C184.69 88.3043 187.368 87.1029 189.359 84.7001C191.418 82.2287 192.448 79.1051 192.448 75.3294C192.448 71.4849 191.418 68.3957 189.359 66.0616C187.368 63.6588 184.69 62.4574 181.327 62.4574C177.963 62.4574 175.251 63.6588 173.191 66.0616C171.201 68.3957 170.205 71.4849 170.205 75.3294C170.205 79.1051 171.201 82.2287 173.191 84.7001C175.251 87.1029 177.963 88.3043 181.327 88.3043Z" fill="#CCCCCC"/>
<path d="M214.559 64.0021C214.559 61.462 214.559 58.9219 214.559 56.3819C214.559 53.8418 214.559 51.3018 214.559 48.7617C215.932 48.7617 217.305 48.7617 218.678 48.7617C220.12 48.7617 221.527 48.7617 222.9 48.7617C222.9 48.4184 222.9 48.1095 222.9 47.8349C222.9 47.5603 222.9 47.2857 222.9 47.0111C222.9 42.4115 223.827 38.5671 225.681 35.4779C227.603 32.3199 230.109 29.9172 233.198 28.2696C236.356 26.5533 239.788 25.5922 243.496 25.3863C247.271 25.1117 251.013 25.5922 254.72 26.8279C254.72 29.368 254.72 31.9767 254.72 34.6541C254.72 37.3314 254.72 39.9745 254.72 42.5832C250.601 41.2102 247.1 40.9356 244.216 41.7594C241.333 42.5832 239.891 44.3681 239.891 47.1141C239.891 47.3887 239.891 47.6633 239.891 47.9379C239.891 48.2125 239.891 48.4871 239.891 48.7617C242.02 48.7617 244.148 48.7617 246.276 48.7617C248.404 48.7617 250.532 48.7617 252.66 48.7617C252.66 51.3018 252.66 53.8418 252.66 56.3819C252.66 58.9219 252.66 61.462 252.66 64.0021C250.532 64.0021 248.404 64.0021 246.276 64.0021C244.148 64.0021 242.02 64.0021 239.891 64.0021C239.891 70.2492 239.891 76.5651 239.891 82.9495C239.891 89.334 239.891 95.6842 239.891 102C237.145 102 234.331 102 231.447 102C228.564 102 225.715 102 222.9 102C222.9 95.6842 222.9 89.334 222.9 82.9495C222.9 76.5651 222.9 70.2492 222.9 64.0021C221.527 64.0021 220.12 64.0021 218.678 64.0021C217.305 64.0021 215.932 64.0021 214.559 64.0021ZM311.123 48.7617C311.123 57.5489 311.123 66.4391 311.123 75.4323C311.123 84.3569 311.123 93.2128 311.123 102C308.377 102 305.562 102 302.679 102C299.796 102 296.947 102 294.132 102C294.132 101.519 294.132 101.073 294.132 100.661C294.132 100.249 294.132 99.8032 294.132 99.3226C292.279 100.627 290.185 101.622 287.851 102.309C285.585 103.064 283.114 103.442 280.436 103.442C276.523 103.442 273.056 102.549 270.036 100.764C267.084 98.9794 264.75 96.405 263.034 93.0411C261.386 89.6773 260.562 85.6956 260.562 81.096C260.562 75.7413 260.562 70.3522 260.562 64.9288C260.562 59.5055 260.562 54.1164 260.562 48.7617C263.377 48.7617 266.226 48.7617 269.109 48.7617C271.992 48.7617 274.807 48.7617 277.553 48.7617C277.553 53.7045 277.553 58.716 277.553 63.7961C277.553 68.8762 277.553 73.8877 277.553 78.8305C277.553 81.5765 278.171 83.8077 279.407 85.5239C280.711 87.1715 282.736 87.9953 285.482 87.9953C288.228 87.9953 290.356 87.2059 291.867 85.6269C293.377 84.0479 294.132 81.7825 294.132 78.8305C294.132 73.8877 294.132 68.8762 294.132 63.7961C294.132 58.716 294.132 53.7045 294.132 48.7617C296.947 48.7617 299.796 48.7617 302.679 48.7617C305.562 48.7617 308.377 48.7617 311.123 48.7617ZM322.427 102C322.427 93.2128 322.427 84.3569 322.427 75.4323C322.427 66.4391 322.427 57.5489 322.427 48.7617C325.242 48.7617 328.091 48.7617 330.974 48.7617C333.857 48.7617 336.672 48.7617 339.418 48.7617C339.418 49.2422 339.418 49.7228 339.418 50.2034C339.418 50.6839 339.418 51.1645 339.418 51.645C341.546 50.1347 343.949 49.002 346.626 48.2468C349.304 47.4917 352.221 47.2857 355.379 47.629C355.379 50.375 355.379 53.1553 355.379 55.97C355.379 58.7846 355.379 61.565 355.379 64.311C349.956 63.5558 345.94 64.0364 343.331 65.7526C340.722 67.4003 339.418 70.1119 339.418 73.8877C339.418 78.4873 339.418 83.1555 339.418 87.8924C339.418 92.6292 339.418 97.3318 339.418 102C336.672 102 333.857 102 330.974 102C328.091 102 325.242 102 322.427 102ZM363.054 102C363.054 93.2128 363.054 84.3569 363.054 75.4323C363.054 66.4391 363.054 57.5489 363.054 48.7617C365.869 48.7617 368.718 48.7617 371.601 48.7617C374.484 48.7617 377.299 48.7617 380.045 48.7617C380.045 49.2422 380.045 49.6885 380.045 50.1004C380.045 50.5123 380.045 50.9585 380.045 51.4391C381.899 50.1347 383.958 49.1393 386.224 48.4528C388.558 47.6976 391.063 47.32 393.741 47.32C397.654 47.32 401.086 48.2125 404.038 49.9974C407.059 51.7823 409.393 54.3567 411.041 57.7206C412.757 61.0158 413.615 64.9975 413.615 69.6657C413.615 75.0204 413.615 80.4095 413.615 85.8329C413.615 91.2562 413.615 96.6453 413.615 102C410.869 102 408.054 102 405.171 102C402.288 102 399.439 102 396.624 102C396.624 97.0572 396.624 92.0457 396.624 86.9656C396.624 81.8855 396.624 76.874 396.624 71.9312C396.624 69.1852 395.972 66.9883 394.667 65.3407C393.432 63.6245 391.441 62.7664 388.695 62.7664C385.949 62.7664 383.821 63.5558 382.31 65.1348C380.8 66.7137 380.045 68.9792 380.045 71.9312C380.045 76.874 380.045 81.8855 380.045 86.9656C380.045 92.0457 380.045 97.0572 380.045 102C377.299 102 374.484 102 371.601 102C368.718 102 365.869 102 363.054 102ZM464.77 85.5239C464.77 89.7802 463.569 93.2814 461.166 96.0274C458.832 98.7048 455.674 100.661 451.693 101.897C447.711 103.133 443.249 103.648 438.306 103.442C433.432 103.304 428.454 102.515 423.374 101.073C423.374 98.4645 423.374 95.7871 423.374 93.0411C423.374 90.2951 423.374 87.6178 423.374 85.0091C426.258 86.3134 429.141 87.3432 432.024 88.0983C434.908 88.7848 437.516 89.1967 439.85 89.334C442.184 89.4713 444.072 89.2997 445.514 88.8191C446.956 88.2699 447.677 87.3775 447.677 86.1418C447.677 85.1807 447.059 84.4255 445.823 83.8763C444.656 83.3271 443.111 82.8466 441.189 82.4347C439.267 81.9541 437.207 81.4049 435.011 80.7871C432.882 80.1006 430.857 79.1738 428.935 78.0067C427.013 76.771 425.434 75.1577 424.198 73.1669C423.031 71.1074 422.448 68.4643 422.448 65.2378C422.448 61.3933 423.546 58.1325 425.743 55.4551C428.008 52.7091 431.029 50.6496 434.805 49.2766C438.58 47.8349 442.802 47.1141 447.471 47.1141C452.139 47.1141 456.91 47.9036 461.784 49.4825C461.784 52.0912 461.784 54.7686 461.784 57.5146C461.784 60.2606 461.784 62.938 461.784 65.5467C457.94 63.6931 454.336 62.4574 450.972 61.8396C447.608 61.2217 444.896 61.1531 442.837 61.6336C440.777 62.0455 439.747 62.9723 439.747 64.414C439.747 65.3751 440.331 66.1302 441.498 66.6794C442.734 67.16 444.278 67.6062 446.132 68.0181C448.054 68.43 450.079 68.9792 452.207 69.6657C454.404 70.3522 456.429 71.3133 458.283 72.549C460.205 73.7161 461.75 75.3637 462.917 77.4918C464.153 79.5514 464.77 82.2287 464.77 85.5239Z" fill="#999999"/>
</svg>
